<svg width="229" height="212" xmlns="http://www.w3.org/2000/svg" class="fl-svgdocument">

 <g>
  <title>Layer 1</title>
  <g data-uid="o_elgj9ehe5_9" transform="matrix(0.8125 0 0 0.8125 53.4784 53.0939)" id="_RSW7n-2N9eGeVdvsA9wND">
   <path data-uid="o_elgj9ehe5_10" fill="#3d90e3" d="m84.54865,141.69674c-1.97242,0 -3.74207,-1.26272 -4.37804,-3.15219l-17.70572,-53.11716l-53.10795,-17.70572c-1.72357,-0.57145 -2.9402,-2.10146 -3.12454,-3.89876c-0.19356,-1.80652 0.70049,-3.54852 2.26736,-4.45178l175.12166,-101.38622c1.57609,-0.89404 3.50243,-0.81109 4.94949,0.21199c1.47471,1.02308 2.21206,2.81116 1.89869,4.58081l-27.65079,156.6878c-0.23964,1.38254 -1.10603,2.58074 -2.35032,3.25358c-1.22585,0.67284 -2.70056,0.73735 -4.00936,0.18434l-59.30172,-25.41107l-8.10168,40.51762c-0.40554,2.04616 -2.13833,3.56695 -4.23057,3.69599c-0.08295,-0.01843 -0.18434,-0.00922 -0.27651,-0.00922zm-62.57373,-79.4868l45.59615,15.19872c1.37332,0.45163 2.46092,1.53923 2.91255,2.91255l12.94057,38.84014l5.81588,-29.0702c0.26729,-1.35489 1.1429,-2.52544 2.37797,-3.17062c1.22585,-0.6544 2.68213,-0.7097 3.96328,-0.15669l59.17269,25.35577l24.92258,-141.21258l-157.70166,91.3029z" id="_phllc85rE7S6GrLBFDQFc"/>
   <path data-uid="o_elgj9ehe5_11" fill="#3d90e3" d="m93.76861,97.23756c-0.93091,0 -1.86182,-0.27651 -2.68213,-0.85717c-2.07381,-1.47471 -2.54387,-4.35961 -1.06916,-6.4242l59.80866,-83.72659l-80.45458,80.44536c-1.7973,1.7973 -4.71907,1.7973 -6.51637,0s-1.7973,-4.71907 0,-6.51637l119.82008,-119.82008c1.70513,-1.70513 4.40569,-1.81574 6.23986,-0.25807c1.82495,1.54844 2.15676,4.23979 0.77422,6.19378l-92.16929,129.03701c-0.89404,1.2535 -2.32267,1.92634 -3.75129,1.92634z" id="_wcoEW1OPWL1dDQwAKQ3wP"/>
   <path data-uid="o_elgj9ehe5_12" fill="#3d90e3" d="m86.1005,144.86688c-0.95856,0 -1.93556,-0.30416 -2.76508,-0.92169c-2.03694,-1.53001 -2.4517,-4.41491 -0.93091,-6.45185l27.65079,-36.86772c1.53923,-2.04616 4.42413,-2.44249 6.45185,-0.92169c2.03694,1.53001 2.4517,4.41491 0.93091,6.45185l-27.65079,36.86772c-0.90326,1.20742 -2.29502,1.84339 -3.68677,1.84339z" id="_QAGRuNn40BQNQtoID3OYu"/>
   <path data-uid="o_elgj9ehe5_13" fill="#3d90e3" d="m81.02285,107.11754c-0.18722,0 -0.37445,-0.06653 -0.52453,-0.20424c-0.38528,-0.35433 -0.76436,-0.71949 -1.13881,-1.09394c-0.30172,-0.30172 -0.30172,-0.79222 0,-1.09394c0.30172,-0.30327 0.79222,-0.30172 1.09394,-0.00155c0.35897,0.35897 0.72413,0.71021 1.09394,1.05061c0.3141,0.28934 0.33422,0.77829 0.04487,1.09394c-0.15318,0.16401 -0.36207,0.24911 -0.5694,0.24911z" id="_yb-tJ4vBPVXlCitcCDhSg"/>
   <path data-uid="o_elgj9ehe5_14" fill="#3d90e3" d="m11.64024,169.03734c-4.35039,0 -8.81138,-0.46085 -13.25394,-1.37332c-2.49779,-0.50693 -4.09232,-2.9402 -3.5946,-5.43799c0.51615,-2.49779 2.97707,-4.07388 5.44721,-3.5946c3.83424,0.78344 7.66849,1.17977 11.40134,1.17977c0.01843,0 0.03687,0 0.0553,0l2.07381,-0.03687c2.9955,-0.1659 4.69142,1.89869 4.78359,4.43334s-1.9079,4.69142 -4.44256,4.78359l-2.40562,0.04608c-0.01843,0 -0.04608,0 -0.06452,0zm-33.02426,-8.8206c-0.71892,0 -1.43784,-0.1659 -2.11989,-0.51615c-4.29509,-2.2305 -8.69156,-4.91262 -13.07882,-7.95421c-2.10146,-1.45627 -2.60839,-4.33196 -1.15212,-6.41498c1.45627,-2.10146 4.34117,-2.59917 6.40577,-1.15212c4.05545,2.8296 8.12011,5.29973 12.07418,7.34589c2.25815,1.17055 3.14297,3.95406 1.96321,6.21221c-0.82031,1.57609 -2.42405,2.47935 -4.09232,2.47935z" id="_UmfiolODk5NRACk73zmG8"/>
   <path data-uid="o_elgj9ehe5_15" fill="#3d90e3" d="m44.38637,161.35805c-1.78808,0 -3.49322,-1.05073 -4.23979,-2.79273c-0.99543,-2.3411 0.09217,-5.05088 2.43327,-6.05552c2.55309,-1.09681 5.14305,-2.38718 7.71457,-3.90798c2.18441,-1.29037 5.00479,-0.57145 6.3136,1.6314c1.29959,2.19363 0.57145,5.01401 -1.6314,6.3136c-2.84803,1.67748 -5.79745,3.17984 -8.77452,4.45178c-0.58988,0.24886 -1.20742,0.35946 -1.81574,0.35946z" id="_rTu32se3LxW-hc92MUk8L"/>
  </g>
 </g>
</svg>